<mxfile host="app.diagrams.net" modified="2021-10-07T00:01:50.286Z" agent="5.0 (X11)" etag="yAPMHYDonrnfMXpygHZS" version="15.4.3" type="github">
  <diagram id="lKAmAQcxHDuL5bPu95Ws" name="Page-1">
    <mxGraphModel dx="1384" dy="1915" grid="1" gridSize="10" guides="1" tooltips="1" connect="1" arrows="1" fold="1" page="1" pageScale="1" pageWidth="827" pageHeight="1169" math="0" shadow="0">
      <root>
        <mxCell id="0" />
        <mxCell id="1" parent="0" />
        <mxCell id="wu5PpA33srSAi_ZHmF2i-9" value="" style="rounded=0;whiteSpace=wrap;html=1;" vertex="1" parent="1">
          <mxGeometry x="90" y="220" width="600" height="230" as="geometry" />
        </mxCell>
        <mxCell id="wu5PpA33srSAi_ZHmF2i-6" value="MySQL" style="shape=cylinder3;whiteSpace=wrap;html=1;boundedLbl=1;backgroundOutline=1;size=15;" vertex="1" parent="1">
          <mxGeometry x="490" y="490" width="80" height="80" as="geometry" />
        </mxCell>
        <mxCell id="wu5PpA33srSAi_ZHmF2i-8" value="API Backend" style="rounded=0;whiteSpace=wrap;html=1;" vertex="1" parent="1">
          <mxGeometry x="460" y="325" width="120" height="60" as="geometry" />
        </mxCell>
        <mxCell id="wu5PpA33srSAi_ZHmF2i-10" value="Frontend" style="rounded=0;whiteSpace=wrap;html=1;" vertex="1" parent="1">
          <mxGeometry x="180" y="325" width="120" height="60" as="geometry" />
        </mxCell>
        <mxCell id="wu5PpA33srSAi_ZHmF2i-13" value="port: 5000" style="text;html=1;strokeColor=none;fillColor=none;align=center;verticalAlign=middle;whiteSpace=wrap;rounded=0;" vertex="1" parent="1">
          <mxGeometry x="490" y="295" width="60" height="30" as="geometry" />
        </mxCell>
        <mxCell id="wu5PpA33srSAi_ZHmF2i-14" value="port: 3000" style="text;html=1;strokeColor=none;fillColor=none;align=center;verticalAlign=middle;whiteSpace=wrap;rounded=0;" vertex="1" parent="1">
          <mxGeometry x="200" y="295" width="60" height="30" as="geometry" />
        </mxCell>
        <mxCell id="wu5PpA33srSAi_ZHmF2i-18" value="" style="sketch=0;outlineConnect=0;fontColor=#232F3E;gradientColor=none;fillColor=#232F3E;strokeColor=none;dashed=0;verticalLabelPosition=bottom;verticalAlign=top;align=center;html=1;fontSize=12;fontStyle=0;aspect=fixed;pointerEvents=1;shape=mxgraph.aws4.client;" vertex="1" parent="1">
          <mxGeometry x="352" y="-10" width="78" height="76" as="geometry" />
        </mxCell>
        <mxCell id="wu5PpA33srSAi_ZHmF2i-19" value="Cliente" style="text;html=1;strokeColor=none;fillColor=none;align=center;verticalAlign=middle;whiteSpace=wrap;rounded=0;" vertex="1" parent="1">
          <mxGeometry x="360" y="66" width="60" height="30" as="geometry" />
        </mxCell>
        <mxCell id="wu5PpA33srSAi_ZHmF2i-21" value="" style="whiteSpace=wrap;html=1;aspect=fixed;" vertex="1" parent="1">
          <mxGeometry x="350" y="170" width="80" height="80" as="geometry" />
        </mxCell>
        <mxCell id="wu5PpA33srSAi_ZHmF2i-15" value="Nginx" style="text;html=1;strokeColor=none;fillColor=none;align=center;verticalAlign=middle;whiteSpace=wrap;rounded=0;" vertex="1" parent="1">
          <mxGeometry x="360" y="195" width="60" height="30" as="geometry" />
        </mxCell>
        <mxCell id="wu5PpA33srSAi_ZHmF2i-26" value="" style="edgeStyle=orthogonalEdgeStyle;html=1;endArrow=none;elbow=vertical;startArrow=block;startFill=1;strokeColor=#545B64;rounded=0;exitX=0.5;exitY=1;exitDx=0;exitDy=0;entryX=0.375;entryY=0;entryDx=0;entryDy=0;entryPerimeter=0;" edge="1" parent="1" source="wu5PpA33srSAi_ZHmF2i-19" target="wu5PpA33srSAi_ZHmF2i-21">
          <mxGeometry width="100" relative="1" as="geometry">
            <mxPoint x="380" y="140" as="sourcePoint" />
            <mxPoint x="480" y="140" as="targetPoint" />
            <Array as="points">
              <mxPoint x="390" y="170" />
            </Array>
          </mxGeometry>
        </mxCell>
      </root>
    </mxGraphModel>
  </diagram>
</mxfile>
